PathFileType	4	(X/Y/Z)	Patient4_TMGait_0pt4_01_left_21.trc.trc
DataRate	CameraRate	NumFrames	NumMarkers	Units	OrigDataRate	OrigDataStartFrame	OrigNumFrames
80.459770114943	80.459770114943	4	33	mm	80.459770114943	18	       141
Frame#	Time	Sacral			L.Shoulder			Chest			R.Shoulder			Neck			R.ASIS			L.ASIS			R.Thigh.Superior			R.Thigh.Lateral			R.Thigh.Inferior			R.Patella			L.Thigh.Superior			L.Thigh.Lateral			L.Thigh.Inferior			L.Patella			L.Shank.Superior			L.Shank.Lateral			L.Shank.Inferior			R.Shank.Superior			R.Shank.Lateral			R.Shank.Inferior			R.Heel			R.Midfoot.Superior			R.Midfoot.Lateral			R.Toe			L.Heel			L.Midfoot.Lateral			L.Midfoot.Superior			L.Toe			L.Elbow			L.Wrist			R.Elbow			R.Wrist			
		X1	Y1	Z1	X2	Y2	Z2	X3	Y3	Z3	X4	Y4	Z4	X5	Y5	Z5	X6	Y6	Z6	X7	Y7	Z7	X8	Y8	Z8	X9	Y9	Z9	X10	Y10	Z10	X11	Y11	Z11	X12	Y12	Z12	X13	Y13	Z13	X14	Y14	Z14	X15	Y15	Z15	X16	Y16	Z16	X17	Y17	Z17	X18	Y18	Z18	X19	Y19	Z19	X20	Y20	Z20	X21	Y21	Z21	X22	Y22	Z22	X23	Y23	Z23	X24	Y24	Z24	X25	Y25	Z25	X26	Y26	Z26	X27	Y27	Z27	X28	Y28	Z28	X29	Y29	Z29	X30	Y30	Z30	X31	Y31	Z31	X32	Y32	Z32	X33	Y33	Z33	

18	25.381285714286	663.569420223242	1011.662677900248	510.884824035909	813.801072416643	1426.565896263929	287.028001607267	952.628285103350	1359.879010949170	419.682217338783	917.467443364689	1445.756386619145	604.828691899901	839.551663885504	1492.238366423968	450.987586921702	908.018315146823	937.001916887527	584.273289703101	847.767852541982	963.650129784928	316.088631617022	915.835149611814	727.801127978374	555.142210033760	828.549961886700	629.842244441945	630.220434982950	884.212707968964	568.657692668511	542.503922402303	872.709825144262	483.426208122070	551.329532935378	932.169995083150	784.241144475788	350.553425065809	891.105991709047	655.227625333497	271.275710306691	993.940454208480	598.407375282321	334.619239270649	1020.503810383337	526.467789309699	327.963614926624	993.252059521780	450.965977840954	316.687266117677	909.761356694553	333.704968237255	259.122257242156	978.282306235772	220.886142426044	314.348259976306	838.268539536121	396.104118710282	562.392225542619	763.095065935537	299.157485519382	630.715693137031	790.232515904497	201.413182095073	565.551361519462	642.120472418323	42.190344911437	543.908164760515	814.456153027289	96.159184060037	573.904614100809	727.082936800952	36.251987579718	616.426197090339	935.070803417409	43.392858474116	600.379805849913	870.225415700759	49.260421938609	343.986307014851	946.668993473589	51.041014715864	266.429145347600	1022.366009369140	123.207588448369	292.171180239560	1154.268927729254	86.221756425313	268.046003769145	710.208791419209	1110.588109493031	139.910655312983	740.792297556124	870.231317797014	40.640849946956	1030.102622645304	1143.264732574356	759.910864097103	1275.114001716024	1113.769926471432	695.745356864743	
19	25.393714285714	665.585712995163	1010.366470421644	508.977134119366	814.672259020663	1426.013321562796	285.596890041994	953.370891317030	1359.430145680197	418.405563296786	917.717385699573	1445.125323613726	603.505970213480	839.951572646675	1491.498953289583	449.738857126574	909.557761013056	936.492959366070	583.352194419726	850.019735934553	962.494575957206	314.732246793979	916.013372062691	726.816088697726	554.627093268285	827.728163059551	629.153128260149	629.348584785383	883.366842775319	567.514044401959	542.000437468080	871.151994527628	482.227030733305	550.716411494456	933.776503813401	782.104188247086	348.857415545250	890.254508274136	652.764904666410	270.827259817346	993.727218497622	595.762058015998	332.638982119803	1019.095796440449	524.209727777005	327.104772333817	992.738627247852	448.762000000826	316.039320130422	910.214173293131	330.387791323782	259.602259578203	980.371706871947	218.595598600174	314.797814484975	835.948658999481	395.195342403981	561.862837352612	759.906036206428	299.019866386372	630.531882399446	786.148219887182	200.906410235877	565.382305786952	637.096396105135	42.140168608213	543.933677808610	809.430397054353	96.086613489058	573.941849025440	722.029222073786	36.187280291885	616.453549267437	930.046176908779	43.244667378038	600.433986323850	874.091212956990	46.798488422745	345.850059706503	949.932952900195	48.646375577281	267.730865929020	1025.641353350680	120.840237601663	292.843755792385	1157.376947115949	84.016013800501	267.900972275828	710.698855426215	1110.980693902843	137.346834904967	736.462109693603	870.740915216303	37.382144988852	1035.214945767552	1143.451663204440	755.953095901889	1279.935103453500	1118.762829389744	689.591934815147	
20	25.406142857143	667.850154483931	1008.860209554904	506.711433536838	815.644182029298	1425.359870973846	283.975738573683	954.121161947170	1359.017891925296	417.100192699107	917.662563442879	1444.434161200979	602.140053276905	840.241619967843	1490.671425377546	448.334707584247	911.307121942977	935.946320735750	582.332905606476	852.713607126832	961.168724190898	313.311412748370	916.451547396593	725.775784678910	554.042649362982	827.087084709570	628.402758331256	628.339163257301	882.783939784673	566.283322189969	541.444818370068	869.802245424773	480.904988072063	550.014916728586	935.768549923663	779.555507183219	346.848747209699	889.320196032194	649.979169841065	270.354302703797	993.468467854158	592.652875254607	330.537957449412	1017.411492616768	521.373508743118	326.149201445373	991.743580658151	446.024587260513	315.306709964976	909.629784718089	326.847393676458	260.294308202762	981.079797271670	215.862714588372	315.361201456338	833.786876113342	394.215981622607	561.258754004687	756.800837782174	298.890216530629	630.295290937460	782.098114432540	200.366897791495	565.177681581368	632.070288846960	42.070193714068	543.958238403306	804.401680777299	96.010168040301	573.974878421843	716.978139069138	36.110892041486	616.475397365354	925.028319664084	43.055566022857	600.497256243588	875.817650387841	44.622097284655	348.150645222482	950.839550258596	46.203812387594	269.252030024360	1027.061653265195	117.849479252088	293.639202626995	1158.334009477816	80.378438069527	267.478942832791	711.442342494346	1111.262402436999	134.557659250083	733.167326674208	871.228839653586	34.006519867943	1039.714465114612	1143.403027059969	751.818904025558	1284.049869780542	1122.977300014856	683.340274375919	
21	25.418571428571	670.284364587265	1007.210279198013	504.129283711602	816.706837086829	1424.617363944836	282.170433306628	954.889651169697	1358.650885601665	415.747270505386	917.357476101079	1443.696313527649	600.721430123874	840.446784984793	1489.778288487382	446.768797481153	913.251056413764	935.354697746531	581.173439687584	855.781465552116	959.728013888767	311.819694440914	917.185332375275	724.687794114927	553.348595175682	826.682958703122	627.601815261460	627.172377332966	882.498166113594	564.979585929692	540.801850660733	868.713035319437	479.462430888716	549.202343491347	938.054060558570	776.667630639757	344.562913402461	888.377649155266	647.000530213515	269.801949369269	993.163212787894	589.223609233110	328.411409141372	1015.554099534754	518.129397785367	325.148622744980	990.405852857507	442.906925402064	314.523530745255	908.277162780086	323.190411532558	261.076315965326	980.636208304137	212.801720477366	315.998401004981	831.813820419706	393.171801444714	560.555699589923	753.812537511246	298.782010969180	629.980227156345	778.101888145604	199.809271965806	564.923344863283	627.046022507059	42.012383823186	543.985444593453	799.382141665137	95.936001021223	573.997915218742	711.937310242106	36.038604677407	616.489116890229	920.022583222075	42.817215929038	600.570997544427	875.663098307698	42.733133701617	350.657252959724	949.759723716105	43.792077833730	270.863267179041	1026.901492486203	114.396259653934	294.548237843497	1157.506667897028	75.591529694189	266.943675166745	712.451060243455	1111.413108266412	131.577934238395	730.919080293621	871.653746400976	30.490655059241	1043.565895332806	1143.103651303356	747.570979954209	1287.447698327334	1126.378374239167	677.030251837629	
